:version 1.10
:name ASF
:units
  mass 1
  length 1
  angle deg
:documentation
  ASF file generated by Kaydara
:root
  axis xyz
  order  tx ty tz rx ry rz
  position 0 0 0
  orientation 0 0 0
:bonedata
  begin
    id 1
    name LeftUpLegDummy
    direction 1 -2.30186e-007 -8.31532e-007
    length 2.93387
    axis 0 0 0 xyz
  end
  begin
    id 2
    name LeftUpLeg
    direction -1.82929e-007 -1 -1.48925e-009
    length 17.3336
    axis -3.48766 0.00143442 -0.000521554 xyz
    dof rx ry rz
  end
  begin
    id 3
    name LeftLeg
    direction -1.82929e-007 -1 -5.23717e-011
    length 14.9995
    axis 3.68178 -0.00654042 -0.000282425 xyz
    dof rx ry rz
  end
  begin
    id 4
    name LeftFoot
    direction 8.31532e-007 -4.54534e-011 1
    length 6.74421
    axis 1.87234e-006 4.66016e-005 -5.96866e-006 xyz
    dof rx ry rz
  end
  begin
    id 5
    name LeftToes
    direction 0.00818058 -0.00485161 0.999955
    length 3.85048
    axis 1.06247e-005 4.65869e-005 -5.96999e-006 xyz
    dof rx ry rz
  end
  begin
    id 6
    name SpineDummy
    direction -5.8607e-008 0.943407 -0.331637
    length 5.93572
    axis 0 0 0 xyz
  end
  begin
    id 7
    name Spine
    direction -1.04988e-007 0.999988 0.00495137
    length 10.1015
    axis -0.001389 0.000121417 6.61666e-006 xyz
    dof rx ry rz
  end
  begin
    id 8
    name Spine1
    direction 0 0 0
    length 0
    axis -0.001389 0.00012144 6.56766e-006 xyz
    dof rx ry rz
  end
  begin
    id 9
    name RightShoulderDummy
    direction -0.98348 0.17941 -0.0240696
    length 3.59882
    axis -0.001389 0.00012144 6.56766e-006 xyz
  end
  begin
    id 10
    name RightShoulder
    direction -0.978693 0.204882 0.0135597
    length 2.70001
    axis 0.215806 0.000203631 -0.00679732 xyz
    dof rx ry rz
  end
  begin
    id 11
    name RightArm
    direction -1 3.85509e-006 8.31394e-007
    length 10.2459
    axis -23.2009 -0.134239 -0.964098 xyz
    dof rx ry rz
  end
  begin
    id 12
    name RightForeArm
    direction -1 3.85569e-006 8.3129e-007
    length 8.16799
    axis -9.92322 0.0658061 0.17887 xyz
    dof rx ry rz
  end
  begin
    id 13
    name RightHand
    direction -0.992843 -0.0414604 0.112003
    length 5.28593
    axis -0.00960638 0.00330669 -0.185225 xyz
    dof rx ry rz
  end
  begin
    id 14
    name LeftShoulder1Dummy
    direction 0.983523 0.179172 -0.0240748
    length 3.59866
    axis -0.001389 0.00012144 6.56766e-006 xyz
  end
  begin
    id 15
    name LeftShoulder1
    direction 0.978627 0.205195 0.0135605
    length 2.70019
    axis -0.001389 0.00012144 6.57583e-006 xyz
    dof rx ry rz
  end
  begin
    id 16
    name LeftArm
    direction 1 3.51895e-006 -8.60188e-007
    length 10.2459
    axis -23.1894 0.134785 0.967513 xyz
    dof rx ry rz
  end
  begin
    id 17
    name LeftForeArm
    direction 1 3.51921e-006 -7.32029e-007
    length 8.16799
    axis -9.91835 -0.0656957 -0.177789 xyz
    dof rx ry rz
  end
  begin
    id 18
    name LeftHand
    direction 0.992938 -0.0411636 0.11126
    length 5.32135
    axis -0.00960237 -0.00340661 0.185177 xyz
    dof rx ry rz
  end
  begin
    id 19
    name HEadDummy
    direction 1.01974e-006 0.999861 -0.016675
    length 2.99946
    axis -0.001389 0.00012144 6.56766e-006 xyz
  end
  begin
    id 20
    name HEad
    direction -0.0222689 0.980941 0.193023
    length 5.12695
    axis -0.001389 0.00012144 6.56766e-006 xyz
    dof rx ry rz
  end
  begin
    id 21
    name RightUpLegDummy
    direction -1 2.30186e-007 8.31532e-007
    length 2.93387
    axis 0 0 0 xyz
  end
  begin
    id 22
    name RightUpLeg
    direction -1.82966e-007 -1 1.56832e-007
    length 17.3336
    axis -3.4909 -0.000906625 0.00028951 xyz
    dof rx ry rz
  end
  begin
    id 23
    name RightLeg
    direction -1.82786e-007 -1 -1.80317e-007
    length 14.9995
    axis 3.68513 0.0193739 -0.131021 xyz
    dof rx ry rz
  end
  begin
    id 24
    name RightFoot
    direction 8.31721e-007 -4.63324e-011 1
    length 6.74421
    axis 4.81691e-005 -0.120479 -0.188785 xyz
    dof rx ry rz
  end
  begin
    id 25
    name RightToes
    direction 0.00124746 -0.014064 0.9999
    length 3.85082
    axis 0.000481921 0.542163 -0.142575 xyz
    dof rx ry rz
  end
:hierarchy
  begin
    root LeftUpLegDummy SpineDummy RightUpLegDummy
    LeftUpLegDummy LeftUpLeg
    LeftUpLeg LeftLeg
    LeftLeg LeftFoot
    LeftFoot LeftToes
    SpineDummy Spine
    Spine Spine1
    Spine1 RightShoulderDummy LeftShoulder1Dummy HEadDummy
    RightShoulderDummy RightShoulder
    RightShoulder RightArm
    RightArm RightForeArm
    RightForeArm RightHand
    LeftShoulder1Dummy LeftShoulder1
    LeftShoulder1 LeftArm
    LeftArm LeftForeArm
    LeftForeArm LeftHand
    HEadDummy HEad
    RightUpLegDummy RightUpLeg
    RightUpLeg RightLeg
    RightLeg RightFoot
    RightFoot RightToes
  end

:SAMPLES-PER-SECOND 30
:FULLY-SPECIFIED
:DEGREES
185
root  0.193538 34.1717 -11.1842 -175.55 64.5257 -178.554
LeftUpLeg  -7.93561 7.72712 -1.77001
LeftLeg  12.0166 -1.5258 -0.224902
LeftFoot  -0.930417 -0.000661059 0.105807
LeftToes  -9.56566 7.65994e-007 1.12379e-007
Spine  4.32909 2.67409 -0.928114
Spine1  7.86277 5.21959 -0.940894
RightShoulder  0.0762818 0.368584 -5.69284
RightArm  22.0391 20.9951 96.0032
RightForeArm  129.107 59.8202 162.004
RightHand  1.8673 -16.2063 -12.6845
LeftShoulder1  0.0901366 1.04587 -4.75523
LeftArm  -28.0084 -10.2366 -59.0861
LeftForeArm  164.502 -57.1608 -163.734
LeftHand  0.20597 1.18236 19.2819
HEad  30.8383 20.9367 0.774916
RightUpLeg  -14.2836 -8.2782 -6.64915
RightLeg  15.7339 4.39417 0.937675
RightFoot  9.08152 -0.0183741 0.817821
RightToes  -38.0536 -0.203124 -0.303865
186
root  0.383431 34.1745 -11.075 -175.914 62.9294 -179.003
LeftUpLeg  -7.93055 7.30062 -1.59607
LeftLeg  12.1352 -2.64185 -0.393892
LeftFoot  -0.807991 -0.00114523 0.120658
LeftToes  -10.2503 7.65994e-007 1.12379e-007
Spine  4.35887 2.85015 -0.910489
Spine1  7.95282 5.57187 -0.88816
RightShoulder  0.0757841 0.730561 -5.88285
RightArm  21.8198 21.2507 95.8396
RightForeArm  129.243 59.9267 161.925
RightHand  1.86945 -16.109 -12.7787
LeftShoulder1  0.0891005 1.43995 -4.84321
LeftArm  -30.0136 -11.4283 -57.8699
LeftForeArm  165.08 -53.4717 -165.835
LeftHand  0.104871 0.541624 21.2793
HEad  30.8626 21.2648 0.83424
RightUpLeg  -13.8084 -7.91415 -6.98353
RightLeg  15.1707 4.42588 0.899247
RightFoot  8.95743 -0.0192677 0.811427
RightToes  -38.3357 -0.201329 -0.302902
187
root  0.603911 34.1772 -10.9619 -176.258 61.31 -179.418
LeftUpLeg  -7.84582 6.78805 -1.38062
LeftLeg  12.1881 -3.71159 -0.556122
LeftFoot  -0.692836 -0.00174698 0.130394
LeftToes  -11.0225 7.65994e-007 1.12379e-007
Spine  4.33103 3.04047 -0.862896
Spine1  7.92735 5.95482 -0.784531
RightShoulder  0.0749908 0.911672 -6.06278
RightArm  21.6381 21.2611 95.6964
RightForeArm  129.428 59.9835 161.882
RightHand  1.85363 -16.0508 -12.7159
LeftShoulder1  0.0870484 1.89362 -5.07847
LeftArm  -31.331 -12.4779 -56.7462
LeftForeArm  166.129 -50.1283 -167.431
LeftHand  -0.0632825 -0.30682 23.4555
HEad  30.9704 21.2223 0.758252
RightUpLeg  -13.2501 -8.36713 -7.17756
RightLeg  15.2025 4.55309 0.927653
RightFoot  8.07648 -0.0180618 0.762975
RightToes  -38.1907 -0.200307 -0.301669
188
root  0.844994 34.1748 -10.8445 -176.64 59.7065 -179.91
LeftUpLeg  -7.69416 6.10502 -1.193
LeftLeg  12.0813 -4.63089 -0.684413
LeftFoot  -0.535282 -0.00206195 0.129262
LeftToes  -11.9489 7.65994e-007 1.12379e-007
Spine  4.26307 3.31308 -0.858199
Spine1  7.82808 6.50162 -0.763584
RightShoulder  0.0737974 0.824011 -6.0161
RightArm  21.3911 21.0741 95.4491
RightForeArm  129.538 59.8057 162.013
RightHand  1.8463 -16.0726 -12.6468
LeftShoulder1  0.0841639 2.05038 -5.23239
LeftArm  -32.2864 -13.3064 -55.9228
LeftForeArm  167.631 -47.3306 -168.597
LeftHand  -0.306292 -1.36937 24.9679
HEad  30.999 20.8236 0.870344
RightUpLeg  -12.5865 -9.21393 -7.28894
RightLeg  15.2239 4.58881 0.936693
RightFoot  6.80809 -0.0141509 0.665441
RightToes  -37.8093 -0.199404 -0.300147
189
root  1.09912 34.1764 -10.717 -176.954 58.1829 179.645
LeftUpLeg  -7.53055 5.46892 -0.970862
LeftLeg  11.8985 -5.51858 -0.79697
LeftFoot  -0.325247 -0.00201528 0.116628
LeftToes  -12.7677 7.65994e-007 1.12379e-007
Spine  4.17154 3.49257 -0.838171
Spine1  7.69582 6.8856 -0.765778
RightShoulder  0.0723137 0.97987 -6.16174
RightArm  21.1403 20.7987 95.3715
RightForeArm  129.938 59.7299 162.067
RightHand  1.81486 -15.9322 -12.5402
LeftShoulder1  0.0785377 2.69927 -5.62212
LeftArm  -32.9671 -13.9996 -55.2503
LeftForeArm  168.948 -45.0185 -169.467
LeftHand  -0.584863 -2.4797 26.2398
HEad  30.9631 20.5203 0.849903
RightUpLeg  -11.7192 -9.57221 -7.29966
RightLeg  14.6052 3.90637 0.754018
RightFoot  6.1263 -0.00825324 0.532348
RightToes  -37.4662 -0.197967 -0.298311
190
root  1.35976 34.1821 -10.5657 -177.067 56.786 179.464
LeftUpLeg  -7.4498 4.82192 -0.58031
LeftLeg  11.9105 -6.26641 -0.905699
LeftFoot  -0.191191 -0.00232044 0.104109
LeftToes  -13.7225 7.65994e-007 1.12379e-007
Spine  4.08455 3.71976 -0.792518
Spine1  7.57496 7.3604 -0.715388
RightShoulder  0.0686767 1.03444 -6.25047
RightArm  20.7645 20.4543 95.1535
RightForeArm  130.185 59.4799 162.248
RightHand  1.8338 -15.9242 -12.6803
LeftShoulder1  0.072962 3.23336 -5.9112
LeftArm  -33.3765 -14.2004 -54.948
LeftForeArm  169.805 -43.3699 -170.044
LeftHand  -0.870841 -3.5338 27.3612
HEad  30.9134 19.5316 0.802146
RightUpLeg  -10.8167 -9.82085 -7.00271
RightLeg  13.8049 2.58247 0.461741
RightFoot  5.59712 7.69991e-005 0.359147
RightToes  -37.0482 -0.195343 -0.29614
191
root  1.62744 34.1946 -10.3871 -176.967 55.474 179.534
LeftUpLeg  -7.41896 3.98265 -0.0215659
LeftLeg  11.9492 -6.71692 -0.975046
LeftFoot  -0.0124745 -0.0022942 0.0816176
LeftToes  -14.6378 7.65994e-007 1.12379e-007
Spine  4.01215 3.94066 -0.718205
Spine1  7.4815 7.81804 -0.607776
RightShoulder  0.0650359 1.14549 -6.23352
RightArm  20.1377 20.0379 94.6137
RightForeArm  130.403 59.0003 162.589
RightHand  1.84103 -15.9364 -12.7213
LeftShoulder1  0.0674276 3.44997 -5.94932
LeftArm  -33.3684 -13.2096 -54.8214
LeftForeArm  170.645 -42.4918 -170.338
LeftHand  -1.14346 -4.40515 28.7633
HEad  30.8153 17.9013 0.701438
RightUpLeg  -9.93477 -9.47296 -6.479
RightLeg  12.9002 0.728107 0.119153
RightFoot  5.25885 0.0097655 0.164884
RightToes  -36.3537 -0.19003 -0.293612
192
root  1.89297 34.2075 -10.1867 -176.832 54.1122 179.581
LeftUpLeg  -7.42035 3.0699 0.549272
LeftLeg  11.8186 -7.14299 -1.01989
LeftFoot  0.273289 -0.00149073 0.0427561
LeftToes  -15.5756 7.65994e-007 1.12379e-007
Spine  3.94143 4.08307 -0.648527
Spine1  7.38254 8.12447 -0.522724
RightShoulder  0.0620076 1.21785 -6.10357
RightArm  19.3859 19.6199 93.9061
RightForeArm  130.964 58.4558 162.963
RightHand  1.87976 -15.8148 -13.0975
LeftShoulder1  0.0620292 3.66601 -5.96939
LeftArm  -32.3541 -11.1136 -54.9846
LeftForeArm  170.734 -42.5636 -170.315
LeftHand  -1.31975 -4.97193 29.3844
HEad  30.5863 15.7781 0.536168
RightUpLeg  -9.27029 -8.98591 -5.9402
RightLeg  12.2723 -1.20634 -0.180993
RightFoot  4.87952 0.0165733 -0.0114239
RightToes  -35.7524 -0.185472 -0.289893
193
root  2.15478 34.2147 -9.98194 -176.729 52.6746 179.554
LeftUpLeg  -7.4396 2.26262 1.07474
LeftLeg  11.5726 -7.68796 -1.06355
LeftFoot  0.62388 6.26805e-005 -0.0115219
LeftToes  -16.6631 7.65994e-007 1.12379e-007
Spine  3.8886 4.13267 -0.58494
Spine1  7.31115 8.24766 -0.461041
RightShoulder  0.0600843 1.14268 -5.86628
RightArm  18.3763 19.185 93.1614
RightForeArm  131.463 57.8818 163.343
RightHand  1.87184 -15.6486 -13.184
LeftShoulder1  0.0567136 3.81975 -6.2992
LeftArm  -29.8695 -8.00717 -54.9486
LeftForeArm  170.004 -43.3848 -170.039
LeftHand  -1.12032 -4.30086 28.8632
HEad  30.347 12.9474 0.427989
RightUpLeg  -8.89891 -9.17587 -5.46586
RightLeg  12.1838 -2.39216 -0.356082
RightFoot  4.3271 0.0180974 -0.0940423
RightToes  -35.3547 -0.182711 -0.286878
194
root  2.4083 34.2173 -9.77088 -176.637 51.1032 179.495
LeftUpLeg  -7.52436 1.47761 1.58739
LeftLeg  11.2982 -8.40674 -1.12127
LeftFoot  1.02607 0.000736906 -0.0823051
LeftToes  -17.6606 7.65994e-007 1.12379e-007
Spine  3.86006 4.03136 -0.534626
Spine1  7.26914 8.06917 -0.4262
RightShoulder  0.0587241 1.13239 -5.63793
RightArm  17.0716 18.7051 92.2885
RightForeArm  132.069 57.1719 163.797
RightHand  1.85457 -15.4236 -13.2565
LeftShoulder1  0.0529436 3.67503 -6.83505
LeftArm  -26.8271 -3.86307 -54.5447
LeftForeArm  169.997 -45.0234 -169.465
LeftHand  -0.990872 -4.00484 27.4596
HEad  30.1566 9.85542 0.40076
RightUpLeg  -8.69867 -10.1289 -5.03191
RightLeg  12.4066 -2.89196 -0.442159
RightFoot  3.67213 0.0152952 -0.0995633
RightToes  -35.0002 -0.179825 -0.284096
195
root  2.6504 34.2158 -9.55254 -176.584 49.5659 179.363
LeftUpLeg  -7.65614 0.827833 2.04922
LeftLeg  10.9863 -9.19531 -1.17472
LeftFoot  1.45448 0.00175194 -0.169192
LeftToes  -18.6383 7.65994e-007 1.12379e-007
Spine  3.85235 3.8774 -0.508107
Spine1  7.25745 7.78272 -0.430998
RightShoulder  0.0577721 0.704661 -5.36458
RightArm  16.0011 18.2437 91.5692
RightForeArm  132.719 56.5182 164.198
RightHand  1.8506 -15.2435 -13.3886
LeftShoulder1  0.0496821 3.57321 -7.34902
LeftArm  -23.3487 0.608961 -54.4553
LeftForeArm  170.25 -47.3896 -168.572
LeftHand  -0.921827 -4.015 25.5246
HEad  29.8951 6.32914 0.566366
RightUpLeg  -8.60941 -11.419 -4.62303
RightLeg  12.7102 -3.07815 -0.487409
RightFoot  2.93049 0.0109129 -0.0707366
RightToes  -34.3189 -0.174764 -0.280835
196
root  2.87557 34.2134 -9.33121 -176.487 48.2633 179.267
LeftUpLeg  -7.83051 0.288484 2.51588
LeftLeg  10.6882 -9.8611 -1.20697
LeftFoot  1.89445 0.00440556 -0.266468
LeftToes  -19.5925 7.65994e-007 1.12379e-007
Spine  3.83416 3.71394 -0.470996
Spine1  7.23176 7.48875 -0.437289
RightShoulder  0.0570289 0.468186 -5.06689
RightArm  14.68 17.7476 90.5904
RightForeArm  133.324 55.7551 164.649
RightHand  1.86335 -15.0288 -13.6807
LeftShoulder1  0.046482 3.54255 -7.71266
LeftArm  -19.8101 4.95883 -54.6342
LeftForeArm  169.491 -50.1399 -167.424
LeftHand  -0.714592 -3.37613 23.5725
HEad  29.7668 2.35718 0.903155
RightUpLeg  -8.54276 -12.0195 -4.15452
RightLeg  12.8129 -3.72199 -0.596242
RightFoot  2.31563 0.00849121 -0.0646644
RightToes  -33.6288 -0.169691 -0.276379
197
root  3.08305 34.2121 -9.11403 -176.332 47.1853 179.247
LeftUpLeg  -8.03993 -0.214876 3.00969
LeftLeg  10.4515 -10.3473 -1.22264
LeftFoot  2.28332 0.00837259 -0.356999
LeftToes  -20.334 7.65994e-007 1.12379e-007
Spine  3.79463 3.6148 -0.427024
Spine1  7.16256 7.32368 -0.425974
RightShoulder  0.0562596 0.0644633 -4.46601
RightArm  13.301 17.0697 89.2046
RightForeArm  134.156 54.771 165.203
RightHand  1.88055 -14.8434 -13.9863
LeftShoulder1  0.042958 3.46435 -7.68807
LeftArm  -16.7386 8.94678 -55.3451
LeftForeArm  168.936 -53.1516 -165.997
LeftHand  -0.548552 -2.85129 21.4568
HEad  29.838 -2.24829 1.29801
RightUpLeg  -8.50927 -12.1043 -3.63941
RightLeg  12.8319 -4.6568 -0.74744
RightFoot  1.79207 0.00686669 -0.0614706
RightToes  -32.6993 -0.162943 -0.270282
198
root  3.27888 34.2078 -8.90969 -176.232 46.3367 179.218
LeftUpLeg  -8.21081 -0.563515 3.47054
LeftLeg  10.2677 -10.7702 -1.23714
LeftFoot  2.65719 0.0127455 -0.448217
LeftToes  -21.3422 7.65994e-007 1.12379e-007
Spine  3.78689 3.4713 -0.369231
Spine1  7.16055 7.06973 -0.390316
RightShoulder  0.0554954 -0.246818 -3.79979
RightArm  12.0183 16.453 87.771
RightForeArm  135.237 53.7599 165.743
RightHand  1.83199 -14.5713 -13.8806
LeftShoulder1  0.0394763 3.38341 -7.74845
LeftArm  -14.7064 12.4625 -56.0322
LeftForeArm  167.97 -55.811 -164.549
LeftHand  -0.491468 -2.76413 19.8391
HEad  29.8207 -6.61018 1.27248
RightUpLeg  -8.50931 -12.3007 -3.14913
RightLeg  12.8831 -5.30341 -0.855867
RightFoot  1.32771 0.00440334 -0.0402149
RightToes  -32.2228 -0.159523 -0.267114
